<svg width="24" height="24" viewBox="0 0 24 24" fill="none" xmlns="http://www.w3.org/2000/svg">
<path d="M4 0.5H20C21.933 0.5 23.5 2.067 23.5 4V20C23.5 21.933 21.933 23.5 20 23.5H4C2.067 23.5 0.5 21.933 0.5 20V4C0.5 2.067 2.067 0.5 4 0.5Z" fill="white"/>
<path d="M4 0.5H20C21.933 0.5 23.5 2.067 23.5 4V20C23.5 21.933 21.933 23.5 20 23.5H4C2.067 23.5 0.5 21.933 0.5 20V4C0.5 2.067 2.067 0.5 4 0.5Z" stroke="#BCBCBC"/>
<path fill-rule="evenodd" clip-rule="evenodd" d="M12 6.33325C12.2761 6.33325 12.5 6.55711 12.5 6.83325V17.1666C12.5 17.4427 12.2761 17.6666 12 17.6666C11.7239 17.6666 11.5 17.4427 11.5 17.1666V6.83325C11.5 6.55711 11.7239 6.33325 12 6.33325Z" fill="#21272A"/>
<path fill-rule="evenodd" clip-rule="evenodd" d="M6.33337 12C6.33337 11.7239 6.55723 11.5 6.83337 11.5H17.1667C17.4428 11.5 17.6667 11.7239 17.6667 12C17.6667 12.2761 17.4428 12.5 17.1667 12.5H6.83337C6.55723 12.5 6.33337 12.2761 6.33337 12Z" fill="#21272A"/>
</svg>

