<svg width="24" height="24" viewBox="0 0 24 24" fill="none" xmlns="http://www.w3.org/2000/svg">
<path d="M21 21V6.75L14.25 0H6C5.20435 0 4.44129 0.316071 3.87868 0.87868C3.31607 1.44129 3 2.20435 3 3V21C3 21.7956 3.31607 22.5587 3.87868 23.1213C4.44129 23.6839 5.20435 24 6 24H18C18.7956 24 19.5587 23.6839 20.1213 23.1213C20.6839 22.5587 21 21.7956 21 21ZM14.25 4.5C14.25 5.09674 14.4871 5.66903 14.909 6.09099C15.331 6.51295 15.9033 6.75 16.5 6.75H19.5V21C19.5 21.3978 19.342 21.7794 19.0607 22.0607C18.7794 22.342 18.3978 22.5 18 22.5H6C5.60218 22.5 5.22064 22.342 4.93934 22.0607C4.65804 21.7794 4.5 21.3978 4.5 21V3C4.5 2.60218 4.65804 2.22064 4.93934 1.93934C5.22064 1.65804 5.60218 1.5 6 1.5H14.25V4.5Z" fill="#697077"/>
<path d="M6.42618 19.774C6.10647 19.6557 5.84889 19.4273 5.70772 19.1369C5.38786 18.5484 5.49448 17.9599 5.83895 17.4654C6.16373 16.9997 6.70176 16.6038 7.31032 16.2716C8.08117 15.8674 8.896 15.5394 9.74128 15.2933C10.3977 14.2021 10.9795 13.0739 11.4833 11.9153C11.1821 11.2824 10.9459 10.6248 10.778 9.95103C10.6369 9.3443 10.5828 8.74363 10.7025 8.22791C10.8255 7.69096 11.152 7.20861 11.7687 6.97957C12.0837 6.86277 12.4248 6.79755 12.7562 6.86277C12.9229 6.89558 13.0796 6.96229 13.2149 7.05805C13.3502 7.15381 13.4608 7.27622 13.5386 7.41641C13.683 7.66517 13.7355 7.9564 13.7469 8.23246C13.7584 8.51763 13.7273 8.83313 13.6698 9.16379C13.5321 9.93737 13.227 10.8839 12.8169 11.885C13.2694 12.7799 13.8074 13.6358 14.4244 14.4423C15.1545 14.389 15.8888 14.4145 16.6126 14.5182C17.2097 14.6183 17.8166 14.814 18.1873 15.2235C18.3841 15.4419 18.5039 15.7089 18.5154 16.0092C18.5268 16.3004 18.4383 16.5886 18.289 16.8632C18.1597 17.1176 17.9592 17.3355 17.7083 17.4942C17.4603 17.6438 17.1675 17.7171 16.8718 17.7035C16.3288 17.6823 15.799 17.4062 15.3413 17.071C14.7848 16.6455 14.2834 16.162 13.847 15.63C12.7377 15.7464 11.6416 15.9525 10.5713 16.2458C10.0811 17.0497 9.52159 17.8156 8.89815 18.5362C8.41918 19.0671 7.89919 19.5313 7.37757 19.73C7.07786 19.8554 6.73792 19.8711 6.42618 19.774ZM8.68819 16.8905C8.41589 17.0058 8.16328 17.1271 7.93528 17.2515C7.39725 17.5458 7.04787 17.8324 6.87399 18.0812C6.7198 18.3011 6.71652 18.4604 6.80838 18.6288C6.82478 18.6621 6.84118 18.6834 6.85103 18.6955C6.8706 18.6907 6.88978 18.6846 6.90844 18.6773C7.13316 18.5924 7.49075 18.3209 7.95004 17.8097C8.21126 17.514 8.45757 17.2072 8.68819 16.8905ZM11.3783 14.8731C11.9261 14.7549 12.4788 14.6572 13.035 14.5804C12.7364 14.1577 12.4573 13.7235 12.1985 13.2789C11.9412 13.8168 11.6677 14.3479 11.3783 14.8716V14.8731ZM15.3905 15.5557C15.6366 15.8029 15.8761 16.0107 16.1041 16.1776C16.4978 16.4658 16.7717 16.5613 16.921 16.5659C16.9609 16.5707 17.0015 16.5627 17.0358 16.5431C17.104 16.4933 17.1571 16.428 17.19 16.3535C17.2483 16.2611 17.2815 16.157 17.2868 16.0502C17.2858 16.0145 17.2706 15.9805 17.2441 15.9546C17.1588 15.8606 16.916 15.7241 16.3944 15.6376C16.0626 15.5863 15.7269 15.5594 15.3905 15.5572V15.5557ZM12.1263 10.2377C12.2644 9.82592 12.3739 9.40643 12.4544 8.98177C12.5052 8.69661 12.5249 8.4615 12.5167 8.27645C12.5172 8.17435 12.4994 8.07289 12.4642 7.97612C12.3822 7.98551 12.302 8.00595 12.2264 8.03679C12.0837 8.08988 11.9672 8.19758 11.9049 8.46605C11.8392 8.75728 11.8557 9.17744 11.9803 9.71288C12.0197 9.88125 12.0689 10.0572 12.1279 10.2377H12.1263Z" fill="#21272A"/>
</svg>
