<svg width="24" height="24" viewBox="0 0 24 24" fill="none" xmlns="http://www.w3.org/2000/svg">
<path d="M4 0.5H20C21.933 0.5 23.5 2.067 23.5 4V20C23.5 21.933 21.933 23.5 20 23.5H4C2.067 23.5 0.5 21.933 0.5 20V4C0.5 2.067 2.067 0.5 4 0.5Z" fill="white" style="fill:white;fill-opacity:1;"/>
<path d="M4 0.5H20C21.933 0.5 23.5 2.067 23.5 4V20C23.5 21.933 21.933 23.5 20 23.5H4C2.067 23.5 0.5 21.933 0.5 20V4C0.5 2.067 2.067 0.5 4 0.5Z" stroke="#BCBCBC" style="stroke:#BCBCBC;stroke:color(display-p3 0.7373 0.7373 0.7373);stroke-opacity:1;"/>
<path d="M6.66675 6.66699H9.33341M10.0001 10.0003L6.66675 6.66699L10.0001 10.0003ZM6.66675 6.66699V9.33366V6.66699Z" stroke="#21272A" style="stroke:#21272A;stroke:color(display-p3 0.1294 0.1529 0.1647);stroke-opacity:1;" stroke-width="1.5" stroke-linecap="round" stroke-linejoin="round"/>
<path d="M17.3333 6.66699H14.6667M14 10.0003L17.3333 6.66699L14 10.0003ZM17.3333 6.66699V9.33366V6.66699Z" stroke="#21272A" style="stroke:#21272A;stroke:color(display-p3 0.1294 0.1529 0.1647);stroke-opacity:1;" stroke-width="1.5" stroke-linecap="round" stroke-linejoin="round"/>
<path d="M6.66675 17.3333H9.33341M10.0001 14L6.66675 17.3333L10.0001 14ZM6.66675 17.3333V14.6667V17.3333Z" stroke="#21272A" style="stroke:#21272A;stroke:color(display-p3 0.1294 0.1529 0.1647);stroke-opacity:1;" stroke-width="1.5" stroke-linecap="round" stroke-linejoin="round"/>
<path d="M17.3333 17.3333H14.6667M14 14L17.3333 17.3333L14 14ZM17.3333 17.3333V14.6667V17.3333Z" stroke="#21272A" style="stroke:#21272A;stroke:color(display-p3 0.1294 0.1529 0.1647);stroke-opacity:1;" stroke-width="1.5" stroke-linecap="round" stroke-linejoin="round"/>
</svg>
