<svg width="24" height="24" viewBox="0 0 24 24" fill="none" xmlns="http://www.w3.org/2000/svg">
<g clip-path="url(#clip0_1998_6397)">
<path fill-rule="evenodd" clip-rule="evenodd" d="M5.45208 6.57807C6.35631 4.34887 8.62119 2.24023 12 2.24023C15.6352 2.24023 18.7335 4.71363 19.4128 8.71624C20.3719 8.85981 21.3762 9.22715 22.2031 9.84141C23.2309 10.6049 24 11.7682 24 13.3215C24 14.8276 23.3659 16.0257 22.3336 16.8289C21.3217 17.6162 19.9749 17.9902 18.5625 17.9902H15C14.5858 17.9902 14.25 17.6544 14.25 17.2402C14.25 16.826 14.5858 16.4902 15 16.4902H18.5625C19.7283 16.4902 20.7252 16.1797 21.4125 15.645C22.0794 15.1261 22.5 14.3649 22.5 13.3215C22.5 12.3253 22.0269 11.5791 21.3086 11.0455C20.5718 10.4982 19.5953 10.1955 18.7129 10.1518C18.3434 10.1335 18.0425 9.84859 18.0041 9.4807C17.6262 5.86527 15.0277 3.74023 12 3.74023C9.14101 3.74023 7.31311 5.6263 6.71419 7.49423C6.62259 7.7799 6.36958 7.9835 6.07093 8.01187C3.48645 8.2574 1.5 9.8485 1.5 12.2527C1.5 14.6697 3.58853 16.4902 6.375 16.4902H9C9.41421 16.4902 9.75 16.826 9.75 17.2402C9.75 17.6544 9.41421 17.9902 9 17.9902H6.375C2.97397 17.9902 0 15.697 0 12.2527C0 8.97712 2.59336 7.02015 5.45208 6.57807Z" fill="#21272A"/>
<path fill-rule="evenodd" clip-rule="evenodd" d="M11.4697 8.4599C11.7626 8.16701 12.2374 8.16701 12.5303 8.4599L15.5303 11.4599C15.8232 11.7528 15.8232 12.2277 15.5303 12.5206C15.2374 12.8135 14.7626 12.8135 14.4697 12.5206L12 10.0509L9.53033 12.5206C9.23744 12.8135 8.76256 12.8135 8.46967 12.5206C8.17678 12.2277 8.17678 11.7528 8.46967 11.4599L11.4697 8.4599Z" fill="#21272A"/>
<path fill-rule="evenodd" clip-rule="evenodd" d="M12 8.99023C12.4142 8.99023 12.75 9.32602 12.75 9.74023V21.0099C12.75 21.4241 12.4142 21.7599 12 21.7599C11.5858 21.7599 11.25 21.4241 11.25 21.0099V9.74023C11.25 9.32602 11.5858 8.99023 12 8.99023Z" fill="#21272A"/>
</g>
<defs>
<clipPath id="clip0_1998_6397">
<rect width="24" height="24" fill="white"/>
</clipPath>
</defs>
</svg>
