<svg width="16" height="16" viewBox="0 0 16 16" fill="none" xmlns="http://www.w3.org/2000/svg">
<g clip-path="url(#clip0_1998_3052)">
<path d="M11.5896 4.41051L8.87503 1.69551C8.3917 1.21217 7.60837 1.21217 7.12504 1.69551L4.41048 4.41092M11.5896 4.41051L14.3041 7.12551C14.7875 7.60884 14.7875 8.39134 14.3041 8.87384L11.5896 11.5888M11.5896 4.41051L4.41132 11.5893M4.41132 11.5893L7.12671 14.3038C7.60921 14.7872 8.3917 14.7872 8.87503 14.3038L11.5896 11.5888M4.41132 11.5893L1.69592 8.87467C1.58098 8.75996 1.48978 8.6237 1.42756 8.4737C1.36534 8.3237 1.33331 8.1629 1.33331 8.00051C1.33331 7.83811 1.36534 7.67731 1.42756 7.52731C1.48978 7.37731 1.58098 7.24105 1.69592 7.12634L4.41048 4.41092M4.41048 4.41092L11.5896 11.5888" stroke="#8726EE" stroke-width="1.5"/>
</g>
<defs>
<clipPath id="clip0_1998_3052">
<rect width="16" height="16" fill="white"/>
</clipPath>
</defs>
</svg>
