<svg width="32" height="32" viewBox="0 0 32 32" fill="none" xmlns="http://www.w3.org/2000/svg">
<path d="M21.7199 9.21973C22.0128 8.92683 22.4876 8.92683 22.7804 9.21973C23.0732 9.51263 23.0733 9.98744 22.7804 10.2803L17.0607 16L22.7804 21.7197C23.0732 22.0126 23.0733 22.4874 22.7804 22.7803C22.4876 23.0731 22.0128 23.073 21.7199 22.7803L16.0002 17.0605L10.2804 22.7803C9.98761 23.0731 9.51281 23.073 9.2199 22.7803C8.927 22.4874 8.927 22.0126 9.2199 21.7197L14.9396 16L9.2199 10.2803C8.927 9.98738 8.927 9.51262 9.2199 9.21973C9.51279 8.92683 9.98755 8.92683 10.2804 9.21973L16.0002 14.9395L21.7199 9.21973Z" fill="#21272A" style="fill:#21272A;fill:color(display-p3 0.1294 0.1529 0.1647);fill-opacity:1;"/>
</svg>
