<svg width="18" height="18" viewBox="0 0 18 18" fill="none" xmlns="http://www.w3.org/2000/svg">
<mask id="path-1-inside-1_553_80311" fill="white">
<path d="M11 7H18V11H11V18H7V11H0V7H7V0H11V7Z"/>
</mask>
<path d="M11 7H18V11H11V18H7V11H0V7H7V0H11V7Z" fill="black" style="fill:black;fill-opacity:1;"/>
<path d="M11 7H10V8H11V7ZM18 7H19V6H18V7ZM18 11V12H19V11H18ZM11 11V10H10V11H11ZM11 18V19H12V18H11ZM7 18H6V19H7V18ZM7 11H8V10H7V11ZM0 11H-1V12H0V11ZM0 7V6H-1V7H0ZM7 7V8H8V7H7ZM7 0V-1H6V0H7ZM11 0H12V-1H11V0ZM11 7V8H18V7V6H11V7ZM18 7H17V11H18H19V7H18ZM18 11V10H11V11V12H18V11ZM11 11H10V18H11H12V11H11ZM11 18V17H7V18V19H11V18ZM7 18H8V11H7H6V18H7ZM7 11V10H0V11V12H7V11ZM0 11H1V7H0H-1V11H0ZM0 7V8H7V7V6H0V7ZM7 7H8V0H7H6V7H7ZM7 0V1H11V0V-1H7V0ZM11 0H10V7H11H12V0H11Z" fill="white" style="fill:white;fill-opacity:1;" mask="url(#path-1-inside-1_553_80311)"/>
</svg>
