<svg width="32" height="32" viewBox="0 0 32 32" fill="none" xmlns="http://www.w3.org/2000/svg">
<path d="M21.7199 9.21997C22.0128 8.92708 22.4876 8.92708 22.7805 9.21997C23.0732 9.51288 23.0733 9.98768 22.7805 10.2805L17.0607 16.0002L22.7805 21.72C23.0732 22.0129 23.0733 22.4877 22.7805 22.7805C22.4876 23.0734 22.0128 23.0732 21.7199 22.7805L16.0002 17.0608L10.2805 22.7805C9.98762 23.0734 9.51282 23.0732 9.21991 22.7805C8.92702 22.4876 8.92702 22.0129 9.21991 21.72L14.9396 16.0002L9.21991 10.2805C8.92702 9.98762 8.92702 9.51286 9.21991 9.21997C9.5128 8.92708 9.98756 8.92708 10.2805 9.21997L16.0002 14.9397L21.7199 9.21997Z" fill="#21272A"/>
</svg>

