<svg width="24" height="24" viewBox="0 0 24 24" fill="none" xmlns="http://www.w3.org/2000/svg">
<g clip-path="url(#clip0_621_5300)">
<path d="M10 10C10 9.46957 10.2107 8.96086 10.5858 8.58579C10.9609 8.21071 11.4696 8 12 8C12.5304 8 13.0391 8.21071 13.4142 8.58579C13.7893 8.96086 14 9.46957 14 10C14 10.591 13.583 11.318 13.184 11.858L10 16.001H14" stroke="#21272A" style="stroke:#21272A;stroke:color(display-p3 0.1294 0.1529 0.1647);stroke-opacity:1;" stroke-width="1.5" stroke-linecap="round" stroke-linejoin="round"/>
<path d="M12 21C16.9706 21 21 16.9706 21 12C21 7.02944 16.9706 3 12 3C7.02944 3 3 7.02944 3 12C3 16.9706 7.02944 21 12 21Z" stroke="#21272A" style="stroke:#21272A;stroke:color(display-p3 0.1294 0.1529 0.1647);stroke-opacity:1;" stroke-width="1.5" stroke-linecap="round" stroke-linejoin="round"/>
</g>
<defs>
<clipPath id="clip0_621_5300">
<rect width="24" height="24" fill="white" style="fill:white;fill-opacity:1;"/>
</clipPath>
</defs>
</svg>
