<svg width="22" height="22" viewBox="0 0 22 22" fill="none" xmlns="http://www.w3.org/2000/svg">
<path d="M10.75 16.3056V16.3167M10.75 12.4167C10.7295 12.056 10.8268 11.6984 11.0272 11.3978C11.2276 11.0972 11.5203 10.8698 11.8611 10.75C12.2787 10.5903 12.6536 10.3358 12.9562 10.0066C13.2588 9.67741 13.4808 9.28247 13.6048 8.85288C13.7288 8.42328 13.7514 7.97077 13.6708 7.53096C13.5902 7.09115 13.4086 6.67606 13.1404 6.31835C12.8721 5.96064 12.5244 5.67009 12.1248 5.46958C11.7251 5.26906 11.2844 5.16405 10.8373 5.1628C10.3901 5.16156 9.94881 5.26413 9.54805 5.46243C9.14729 5.66073 8.79804 5.94934 8.52778 6.30556M20.75 10.75C20.75 16.2728 16.2728 20.75 10.75 20.75C5.22715 20.75 0.75 16.2728 0.75 10.75C0.75 5.22715 5.22715 0.75 10.75 0.75C16.2728 0.75 20.75 5.22715 20.75 10.75Z" stroke="#21272A" stroke-width="1.5" stroke-linecap="round" stroke-linejoin="round"/>
</svg>
