<svg width="32" height="32" viewBox="0 0 32 32" fill="none" xmlns="http://www.w3.org/2000/svg">
<path d="M8 0.5H24C28.1421 0.5 31.5 3.85786 31.5 8V24C31.5 28.1421 28.1421 31.5 24 31.5H8C3.85786 31.5 0.5 28.1421 0.5 24V8C0.5 3.85786 3.85786 0.5 8 0.5Z" fill="white" style="fill:white;fill-opacity:1;"/>
<path d="M8 0.5H24C28.1421 0.5 31.5 3.85786 31.5 8V24C31.5 28.1421 28.1421 31.5 24 31.5H8C3.85786 31.5 0.5 28.1421 0.5 24V8C0.5 3.85786 3.85786 0.5 8 0.5Z" stroke="#BCBCBC" style="stroke:#BCBCBC;stroke:color(display-p3 0.7373 0.7373 0.7373);stroke-opacity:1;"/>
<path d="M16 16.8332C16.4603 16.8332 16.8334 16.4601 16.8334 15.9998C16.8334 15.5396 16.4603 15.1665 16 15.1665C15.5398 15.1665 15.1667 15.5396 15.1667 15.9998C15.1667 16.4601 15.5398 16.8332 16 16.8332Z" stroke="#21272A" style="stroke:#21272A;stroke:color(display-p3 0.1294 0.1529 0.1647);stroke-opacity:1;" stroke-width="1.5" stroke-linecap="round" stroke-linejoin="round"/>
<path d="M21.8333 16.8332C22.2936 16.8332 22.6667 16.4601 22.6667 15.9998C22.6667 15.5396 22.2936 15.1665 21.8333 15.1665C21.3731 15.1665 21 15.5396 21 15.9998C21 16.4601 21.3731 16.8332 21.8333 16.8332Z" stroke="#21272A" style="stroke:#21272A;stroke:color(display-p3 0.1294 0.1529 0.1647);stroke-opacity:1;" stroke-width="1.5" stroke-linecap="round" stroke-linejoin="round"/>
<path d="M10.1666 16.8332C10.6269 16.8332 11 16.4601 11 15.9998C11 15.5396 10.6269 15.1665 10.1666 15.1665C9.70641 15.1665 9.33331 15.5396 9.33331 15.9998C9.33331 16.4601 9.70641 16.8332 10.1666 16.8332Z" stroke="#21272A" style="stroke:#21272A;stroke:color(display-p3 0.1294 0.1529 0.1647);stroke-opacity:1;" stroke-width="1.5" stroke-linecap="round" stroke-linejoin="round"/>
</svg>
