<svg width="16" height="16" viewBox="0 0 16 16" fill="none" xmlns="http://www.w3.org/2000/svg">
<g clip-path="url(#clip0_1841_3079)">
<path d="M11.5895 4.41051L8.87497 1.69551C8.39164 1.21217 7.60831 1.21217 7.12498 1.69551L4.41042 4.41092M11.5895 4.41051L14.3041 7.12551C14.7874 7.60884 14.7874 8.39134 14.3041 8.87384L11.5895 11.5888M11.5895 4.41051L4.41126 11.5893M4.41126 11.5893L7.12665 14.3038C7.60915 14.7872 8.39164 14.7872 8.87497 14.3038L11.5895 11.5888M4.41126 11.5893L1.69586 8.87467C1.58092 8.75996 1.48972 8.6237 1.4275 8.4737C1.36528 8.3237 1.33325 8.1629 1.33325 8.00051C1.33325 7.83811 1.36528 7.67731 1.4275 7.52731C1.48972 7.37731 1.58092 7.24105 1.69586 7.12634L4.41042 4.41092M4.41042 4.41092L11.5895 11.5888" stroke="#8726EE" stroke-width="1.5"/>
</g>
<defs>
<clipPath id="clip0_1841_3079">
<rect width="16" height="16" fill="white"/>
</clipPath>
</defs>
</svg>
