<svg width="16" height="16" viewBox="0 0 16 16" fill="none" xmlns="http://www.w3.org/2000/svg">
<rect width="16" height="16" rx="2.4" fill="#FF6CAA"/>
<path d="M7.3056 2.1368H8.7728V10.8168C8.7728 11.2349 8.72053 11.5485 8.616 11.7576C8.51147 11.9667 8.33227 12.1272 8.0784 12.2392C7.81707 12.3437 7.48853 12.4109 7.0928 12.4408C6.70453 12.4781 6.23787 12.4931 5.6928 12.4856C5.6704 12.3587 5.62933 12.2093 5.5696 12.0376C5.50987 11.8733 5.44267 11.7053 5.368 11.5336C5.3008 11.3619 5.22987 11.2163 5.1552 11.0968C5.4016 11.1043 5.648 11.1117 5.8944 11.1192C6.1408 11.1267 6.36107 11.1304 6.5552 11.1304C6.74933 11.1229 6.88747 11.1192 6.9696 11.1192C7.08907 11.1192 7.17493 11.0968 7.2272 11.052C7.27947 11.0072 7.3056 10.9288 7.3056 10.8168V2.1368ZM9.9936 5.0824L11.3152 4.5896C11.6213 5.11973 11.9163 5.6872 12.2 6.292C12.4912 6.88933 12.7451 7.4792 12.9616 8.0616C13.1856 8.63653 13.3461 9.1592 13.4432 9.6296L11.9648 10.212C11.8901 9.75653 11.752 9.2376 11.5504 8.6552C11.3563 8.06533 11.1211 7.46053 10.8448 6.8408C10.576 6.2136 10.2923 5.62747 9.9936 5.0824ZM4.3712 4.7128L5.8944 4.9704C5.76747 5.52293 5.6144 6.1128 5.4352 6.74C5.256 7.35973 5.0432 7.95333 4.7968 8.5208C4.55787 9.0808 4.2816 9.56987 3.968 9.988C3.856 9.90587 3.71787 9.82 3.5536 9.7304C3.3968 9.6408 3.23627 9.55867 3.072 9.484C2.9152 9.40187 2.77333 9.33467 2.6464 9.2824C2.95253 8.9016 3.2176 8.44987 3.4416 7.9272C3.67307 7.39707 3.8672 6.852 4.024 6.292C4.1808 5.72453 4.29653 5.19813 4.3712 4.7128Z" fill="white"/>
</svg>
