<svg width="72" height="72" viewBox="0 0 72 72" fill="none" xmlns="http://www.w3.org/2000/svg">
<path d="M36 63L35.6998 62.5498C33.6159 59.4239 32.5739 57.8609 31.1973 56.7295C29.9786 55.7278 28.5743 54.9762 27.0648 54.5178C25.3598 54 23.4813 54 19.7245 54H15.6C12.2397 54 10.5595 54 9.27606 53.346C8.14708 52.7708 7.2292 51.8529 6.65396 50.7239C6 49.4405 6 47.7603 6 44.4V18.6C6 15.2397 6 13.5595 6.65396 12.2761C7.2292 11.1471 8.14708 10.2292 9.27606 9.65396C10.5595 9 12.2397 9 15.6 9H16.8C23.5206 9 26.8809 9 29.4479 10.3079C31.7058 11.4584 33.5416 13.2942 34.6921 15.5521C36 18.1191 36 21.4794 36 28.2M36 63V28.2M36 63L36.3002 62.5498C38.3841 59.4239 39.4261 57.8609 40.8027 56.7295C42.0214 55.7278 43.4257 54.9762 44.9352 54.5178C46.6402 54 48.5187 54 52.2755 54H56.4C59.7603 54 61.4405 54 62.7239 53.346C63.8529 52.7708 64.7708 51.8529 65.346 50.7239C66 49.4405 66 47.7603 66 44.4V18.6C66 15.2397 66 13.5595 65.346 12.2761C64.7708 11.1471 63.8529 10.2292 62.7239 9.65396C61.4405 9 59.7603 9 56.4 9H55.2C48.4794 9 45.1191 9 42.5521 10.3079C40.2942 11.4584 38.4584 13.2942 37.3079 15.5521C36 18.1191 36 21.4794 36 28.2" stroke="#8726EE" stroke-width="4.5" stroke-linecap="round" stroke-linejoin="round"/>
</svg>

