<svg width="20" height="20" viewBox="0 0 20 20" fill="none" xmlns="http://www.w3.org/2000/svg">
<path fill-rule="evenodd" clip-rule="evenodd" d="M2.49969 9.58366C2.49969 5.2114 6.0441 1.66699 10.4164 1.66699C14.7886 1.66699 18.333 5.2114 18.333 9.58366C18.333 13.9559 14.7886 17.5003 10.4164 17.5003C9.41499 17.5003 8.45519 17.314 7.57107 16.9734C7.49527 16.9442 7.45137 16.9273 7.41899 16.9157C7.41503 16.9143 7.4116 16.9131 7.40869 16.912C7.40763 16.9121 7.4065 16.9122 7.40529 16.9123C7.37894 16.9143 7.34297 16.918 7.27418 16.9251L3.00666 17.3662C2.99727 17.3672 2.98786 17.3682 2.97842 17.3691C2.79993 17.3876 2.61373 17.4069 2.45799 17.4087C2.3032 17.4106 2.02421 17.4018 1.7567 17.2386C1.44313 17.0473 1.22956 16.7278 1.17271 16.365C1.12421 16.0554 1.22278 15.7942 1.28363 15.6519C1.34486 15.5087 1.43388 15.344 1.5192 15.1862L2.89576 12.6382C2.95531 12.528 2.98714 12.4687 3.00856 12.4245C3.00968 12.4222 3.01072 12.42 3.01168 12.418C3.01008 12.4122 3.00813 12.4054 3.00578 12.3975C2.98774 12.3364 2.95998 12.2536 2.91281 12.1137C2.64468 11.3182 2.49969 10.467 2.49969 9.58366ZM10.4164 3.33366C6.96457 3.33366 4.16635 6.13188 4.16635 9.58366C4.16635 10.2837 4.28111 10.9551 4.49218 11.5813C4.49888 11.6012 4.5058 11.6216 4.51285 11.6423C4.58047 11.841 4.65989 12.0745 4.67661 12.2858C4.69185 12.4783 4.67796 12.6411 4.63032 12.8283C4.57822 13.0331 4.47233 13.2277 4.38644 13.3856C4.37812 13.4009 4.36999 13.4159 4.36211 13.4304L3.14894 15.676L7.10281 15.2673C7.11178 15.2663 7.12098 15.2654 7.1304 15.2644C7.22957 15.254 7.35247 15.241 7.47308 15.2457C7.58332 15.2499 7.67621 15.2622 7.7837 15.287C7.9017 15.3142 8.02971 15.3638 8.13767 15.4056C8.14875 15.4099 8.15961 15.4141 8.17023 15.4182C8.8662 15.6863 9.62308 15.8337 10.4164 15.8337C13.8681 15.8337 16.6664 13.0354 16.6664 9.58366C16.6664 6.13188 13.8681 3.33366 10.4164 3.33366ZM10.693 7.09864C10.4509 7.0571 10.2018 7.10261 9.99003 7.22708C9.77824 7.35156 9.61732 7.54698 9.5358 7.77873C9.38307 8.21288 8.90731 8.44103 8.47315 8.2883C8.03899 8.13557 7.81085 7.65981 7.96358 7.22565C8.17571 6.62261 8.59443 6.1141 9.14556 5.79019C9.6967 5.46629 10.3447 5.34789 10.9747 5.45596C11.6048 5.56403 12.1763 5.89161 12.588 6.38066C12.9996 6.8696 13.2249 7.48839 13.2241 8.1275C13.2237 9.19398 12.4348 9.87956 11.9162 10.2253C11.6314 10.4151 11.3526 10.5539 11.1483 10.6447C11.045 10.6907 10.9577 10.7256 10.8943 10.7498C10.8625 10.7619 10.8365 10.7714 10.8173 10.7782L10.7936 10.7865L10.7858 10.7892L10.7828 10.7902L10.7817 10.7906C10.7814 10.7906 10.7806 10.7909 10.5171 10.0003L10.7806 10.7909C10.344 10.9364 9.87209 10.7005 9.72655 10.2638C9.58106 9.82738 9.81682 9.35562 10.2532 9.2099L10.2521 9.21027L10.259 9.20783C10.2672 9.2049 10.2815 9.19973 10.301 9.19231C10.34 9.17743 10.3991 9.15385 10.4714 9.12172C10.6184 9.0564 10.808 8.961 10.9917 8.83855C11.4097 8.55984 11.5574 8.30887 11.5574 8.12672L11.5574 8.12548C11.5578 7.87981 11.4712 7.64194 11.313 7.454C11.1547 7.26605 10.9351 7.14017 10.693 7.09864ZM9.70794 12.5003C9.70794 12.0401 10.081 11.667 10.5413 11.667H10.5496C11.0098 11.667 11.3829 12.0401 11.3829 12.5003C11.3829 12.9606 11.0098 13.3337 10.5496 13.3337H10.5413C10.081 13.3337 9.70794 12.9606 9.70794 12.5003Z" fill="black"/>
</svg>
