<svg width="32" height="32" viewBox="0 0 32 32" fill="none" xmlns="http://www.w3.org/2000/svg">
<path fill-rule="evenodd" clip-rule="evenodd" d="M16 32C24.8366 32 32 24.8366 32 16C32 7.16345 24.8366 0 16 0C7.16343 0 0 7.16345 0 16C0 24.8366 7.16343 32 16 32Z" fill="#F8C5D8"/>
<path d="M10.5889 12.7173C10.5314 12.9689 10.5 13.2305 10.5 13.4995C10.5 14.5184 10.936 15.4351 11.6309 16.0747C10.2933 18.1761 10.535 21.0666 12.5176 22.897C13.1263 23.4588 13.1643 24.4084 12.6025 25.0171C12.0407 25.6258 11.0912 25.6639 10.4824 25.1021C6.79124 21.6946 6.96906 15.9297 10.5889 12.7173ZM15.748 16.5308C16.9816 18.8631 19.5227 20.4094 22.3906 20.1704L24.375 20.0044C25.2003 19.9356 25.926 20.5493 25.9951 21.3745C26.0639 22.1999 25.4504 22.9256 24.625 22.9946L22.6396 23.1597C18.0247 23.5442 13.9974 20.7131 12.5391 16.6802C12.9838 16.8848 13.4784 16.9995 14 16.9995C14.637 16.9995 15.2335 16.8282 15.748 16.5308ZM23.1426 9.48193C23.4953 8.73272 24.3892 8.41088 25.1387 8.76318C25.8881 9.11578 26.2098 10.0097 25.8574 10.7593C24.22 14.2408 20.5037 16.0577 16.9014 15.4575C17.2792 14.8987 17.5 14.2248 17.5 13.4995C17.5 13.1501 17.4479 12.813 17.3525 12.4946C19.6778 12.8993 22.0853 11.73 23.1426 9.48193ZM13.5 4.49951C14.3283 4.49954 14.9998 5.17125 15 5.99951V10.145C14.6831 10.0507 14.3475 9.99951 14 9.99951C13.2563 9.99952 12.5669 10.2319 12 10.6274V5.99951C12.0002 5.17138 12.6719 4.49972 13.5 4.49951Z" fill="url(#paint0_linear_1191_8822)"/>
<circle cx="14" cy="13.5" r="2.5" fill="#475CFF"/>
<defs>
<linearGradient id="paint0_linear_1191_8822" x1="14.6208" y1="4.49978" x2="14.6208" y2="25.5" gradientUnits="userSpaceOnUse">
<stop stop-color="#9747FF"/>
<stop offset="1" stop-color="#B300FF"/>
</linearGradient>
</defs>
</svg>
