<svg width="20" height="20" viewBox="0 0 20 20" fill="none" xmlns="http://www.w3.org/2000/svg">
<path fill-rule="evenodd" clip-rule="evenodd" d="M0.833332 10.8337C0.833332 5.77105 4.93739 1.66699 10 1.66699C15.0626 1.66699 19.1667 5.77105 19.1667 10.8337V14.167C19.1667 14.6272 18.7936 15.0003 18.3333 15.0003C17.8731 15.0003 17.5 14.6272 17.5 14.167V10.8337C17.5 6.69152 14.1421 3.33366 10 3.33366C5.85786 3.33366 2.5 6.69152 2.5 10.8337V14.167C2.5 14.6272 2.1269 15.0003 1.66667 15.0003C1.20643 15.0003 0.833332 14.6272 0.833332 14.167V10.8337ZM3.33333 12.917C3.33333 11.3062 4.63917 10.0003 6.25 10.0003C7.86083 10.0003 9.16667 11.3062 9.16667 12.917V15.417C9.16667 17.0278 7.86083 18.3337 6.25 18.3337C4.63917 18.3337 3.33333 17.0278 3.33333 15.417V12.917ZM6.25 11.667C5.55964 11.667 5 12.2266 5 12.917V15.417C5 16.1073 5.55964 16.667 6.25 16.667C6.94035 16.667 7.5 16.1073 7.5 15.417V12.917C7.5 12.2266 6.94035 11.667 6.25 11.667ZM10.8333 12.917C10.8333 11.3062 12.1392 10.0003 13.75 10.0003C15.3608 10.0003 16.6667 11.3062 16.6667 12.917V15.417C16.6667 17.0278 15.3608 18.3337 13.75 18.3337C12.1392 18.3337 10.8333 17.0278 10.8333 15.417V12.917ZM13.75 11.667C13.0596 11.667 12.5 12.2266 12.5 12.917V15.417C12.5 16.1073 13.0596 16.667 13.75 16.667C14.4404 16.667 15 16.1073 15 15.417V12.917C15 12.2266 14.4404 11.667 13.75 11.667Z" fill="black"/>
</svg>
