<svg width="16" height="19" viewBox="0 0 16 19" fill="none" xmlns="http://www.w3.org/2000/svg">
<path fill-rule="evenodd" clip-rule="evenodd" d="M7.88626 1.66667C7.1959 1.66667 6.63626 2.22631 6.63626 2.91667C6.63626 3.1009 6.67579 3.2754 6.74713 3.43259C7.12053 3.36689 7.50204 3.33333 7.88626 3.33333C8.27048 3.33333 8.65199 3.36689 9.02539 3.4326C9.09673 3.2754 9.13626 3.1009 9.13626 2.91667C9.13626 2.22631 8.57662 1.66667 7.88626 1.66667ZM10.6202 3.93456C10.7383 3.61756 10.8029 3.27449 10.8029 2.91667C10.8029 1.30584 9.49709 0 7.88626 0C6.27543 0 4.96959 1.30584 4.96959 2.91667C4.96959 3.27449 5.03425 3.61755 5.15236 3.93456C4.66411 4.16354 4.20954 4.45548 3.80495 4.80613C2.70109 5.76281 2.05293 7.08809 2.05293 8.5C2.05293 10.2564 1.61938 11.4999 1.109 12.3631L1.10049 12.3775C0.772326 12.9325 0.516026 13.3659 0.344119 13.6771C0.258188 13.8326 0.182579 13.9768 0.127607 14.1002C0.100346 14.1614 0.070276 14.2349 0.0468459 14.313C0.0293756 14.3712 -0.0136106 14.5221 0.00426652 14.7049C0.0140815 14.8054 0.036602 15.0048 0.152715 15.2083C0.268829 15.4119 0.429021 15.5328 0.510454 15.5923C0.643159 15.6894 0.775951 15.731 0.842085 15.7493C0.920138 15.7709 0.99598 15.7837 1.05887 15.7921C1.1846 15.8089 1.331 15.8175 1.48359 15.8228C1.78779 15.8333 2.21312 15.8333 2.74906 15.8333H4.65794C5.02798 17.271 6.33306 18.3333 7.88626 18.3333C9.43946 18.3333 10.7445 17.271 11.1146 15.8333H13.0235C13.5594 15.8333 13.9847 15.8333 14.2889 15.8228C14.4415 15.8175 14.5879 15.8089 14.7137 15.7921C14.7765 15.7837 14.8524 15.7709 14.9304 15.7493C14.9966 15.731 15.1294 15.6894 15.2621 15.5923C15.3435 15.5328 15.5037 15.4119 15.6198 15.2083C15.7359 15.0048 15.7584 14.8053 15.7683 14.7049C15.7861 14.5221 15.7431 14.3712 15.7257 14.313C15.7022 14.2349 15.6722 14.1614 15.6449 14.1002C15.5899 13.9768 15.5143 13.8326 15.4284 13.6771C15.2565 13.3659 15.0002 12.9324 14.672 12.3773L14.6635 12.3631C14.1531 11.4999 13.7196 10.2564 13.7196 8.5C13.7196 7.08809 13.0714 5.76281 11.9676 4.80613C11.563 4.45548 11.1084 4.16355 10.6202 3.93456ZM9.14806 5.16507C9.15862 5.16817 9.16922 5.17105 9.17987 5.17372C9.82107 5.35047 10.4039 5.65647 10.876 6.06561C11.6475 6.73424 12.0529 7.61336 12.0529 8.5C12.0529 10.5466 12.5625 12.0844 13.2289 13.2114C13.4581 13.599 13.6439 13.9133 13.7892 14.165C13.5731 14.1666 13.3137 14.1667 13.0044 14.1667H2.76808C2.4588 14.1667 2.19937 14.1666 1.9833 14.165C2.12861 13.9133 2.3144 13.599 2.54363 13.2114C3.21003 12.0844 3.71959 10.5466 3.71959 8.5C3.71959 7.61336 4.125 6.73424 4.8965 6.06561C5.36859 5.65647 5.95145 5.35047 6.59266 5.17372C6.6033 5.17105 6.6139 5.16817 6.62445 5.16507C7.02683 5.05715 7.45172 5 7.88626 5C8.3208 5 8.74568 5.05715 9.14806 5.16507ZM6.44256 15.8333C6.73074 16.3315 7.26936 16.6667 7.88626 16.6667C8.50316 16.6667 9.04178 16.3315 9.32996 15.8333H6.44256Z" fill="black"/>
</svg>
