<svg width="36" height="48" viewBox="0 0 36 48" fill="none" xmlns="http://www.w3.org/2000/svg">
<path fill-rule="evenodd" clip-rule="evenodd" d="M3 19.5C3 19.0858 3.33579 18.75 3.75 18.75H20.25C20.6642 18.75 21 19.0858 21 19.5C21 19.9142 20.6642 20.25 20.25 20.25H3.75C3.33579 20.25 3 19.9142 3 19.5Z" fill="#21272A"/>
<path fill-rule="evenodd" clip-rule="evenodd" d="M3 24C3 23.5858 3.33579 23.25 3.75 23.25H20.25C20.6642 23.25 21 23.5858 21 24C21 24.4142 20.6642 24.75 20.25 24.75H3.75C3.33579 24.75 3 24.4142 3 24Z" fill="#21272A"/>
<path fill-rule="evenodd" clip-rule="evenodd" d="M3 28.5C3 28.0858 3.33579 27.75 3.75 27.75H20.25C20.6642 27.75 21 28.0858 21 28.5C21 28.9142 20.6642 29.25 20.25 29.25H3.75C3.33579 29.25 3 28.9142 3 28.5Z" fill="#21272A"/>
</svg>

