<svg width="20" height="20" viewBox="0 0 20 20" fill="none" xmlns="http://www.w3.org/2000/svg">
<path d="M10.0001 10.8332C10.4603 10.8332 10.8334 10.4601 10.8334 9.99984C10.8334 9.5396 10.4603 9.1665 10.0001 9.1665C9.53984 9.1665 9.16675 9.5396 9.16675 9.99984C9.16675 10.4601 9.53984 10.8332 10.0001 10.8332Z" stroke="#21272A" stroke-width="1.5" stroke-linecap="round" stroke-linejoin="round"/>
<path d="M15.8333 10.8332C16.2936 10.8332 16.6667 10.4601 16.6667 9.99984C16.6667 9.5396 16.2936 9.1665 15.8333 9.1665C15.3731 9.1665 15 9.5396 15 9.99984C15 10.4601 15.3731 10.8332 15.8333 10.8332Z" stroke="#21272A" stroke-width="1.5" stroke-linecap="round" stroke-linejoin="round"/>
<path d="M4.16659 10.8332C4.62682 10.8332 4.99992 10.4601 4.99992 9.99984C4.99992 9.5396 4.62682 9.1665 4.16659 9.1665C3.70635 9.1665 3.33325 9.5396 3.33325 9.99984C3.33325 10.4601 3.70635 10.8332 4.16659 10.8332Z" stroke="#21272A" stroke-width="1.5" stroke-linecap="round" stroke-linejoin="round"/>
</svg>

