<svg width="72" height="72" viewBox="0 0 72 72" fill="none" xmlns="http://www.w3.org/2000/svg">
<g clip-path="url(#clip0_1744_20889)">
<path d="M12 21H21C21.7956 21 22.5587 20.6839 23.1213 20.1213C23.6839 19.5587 24 18.7956 24 18V15C24 13.4087 24.6321 11.8826 25.7574 10.7574C26.8826 9.63214 28.4087 9 30 9C31.5913 9 33.1174 9.63214 34.2426 10.7574C35.3679 11.8826 36 13.4087 36 15V18C36 18.7956 36.3161 19.5587 36.8787 20.1213C37.4413 20.6839 38.2044 21 39 21H48C48.7956 21 49.5587 21.3161 50.1213 21.8787C50.6839 22.4413 51 23.2044 51 24V33C51 33.7956 51.3161 34.5587 51.8787 35.1213C52.4413 35.6839 53.2044 36 54 36H57C58.5913 36 60.1174 36.6321 61.2426 37.7574C62.3679 38.8826 63 40.4087 63 42C63 43.5913 62.3679 45.1174 61.2426 46.2426C60.1174 47.3679 58.5913 48 57 48H54C53.2044 48 52.4413 48.3161 51.8787 48.8787C51.3161 49.4413 51 50.2044 51 51V60C51 60.7956 50.6839 61.5587 50.1213 62.1213C49.5587 62.6839 48.7956 63 48 63H39C38.2044 63 37.4413 62.6839 36.8787 62.1213C36.3161 61.5587 36 60.7956 36 60V57C36 55.4087 35.3679 53.8826 34.2426 52.7574C33.1174 51.6321 31.5913 51 30 51C28.4087 51 26.8826 51.6321 25.7574 52.7574C24.6321 53.8826 24 55.4087 24 57V60C24 60.7956 23.6839 61.5587 23.1213 62.1213C22.5587 62.6839 21.7956 63 21 63H12C11.2044 63 10.4413 62.6839 9.87868 62.1213C9.31607 61.5587 9 60.7956 9 60V51C9 50.2044 9.31607 49.4413 9.87868 48.8787C10.4413 48.3161 11.2044 48 12 48H15C16.5913 48 18.1174 47.3679 19.2426 46.2426C20.3679 45.1174 21 43.5913 21 42C21 40.4087 20.3679 38.8826 19.2426 37.7574C18.1174 36.6321 16.5913 36 15 36H12C11.2044 36 10.4413 35.6839 9.87868 35.1213C9.31607 34.5587 9 33.7956 9 33V24C9 23.2044 9.31607 22.4413 9.87868 21.8787C10.4413 21.3161 11.2044 21 12 21" stroke="#21272A" stroke-width="4.5" stroke-linecap="round" stroke-linejoin="round"/>
</g>
<defs>
<clipPath id="clip0_1744_20889">
<rect width="72" height="72" fill="white"/>
</clipPath>
</defs>
</svg>
