<svg width="22" height="22" viewBox="0 0 22 22" fill="none" xmlns="http://www.w3.org/2000/svg">
<path d="M12.5125 21.5625H8.50471C8.50002 21.5625 8.49533 21.5625 8.49064 21.5625C7.89064 21.5531 7.38908 21.1359 7.26721 20.55C7.26252 20.5359 7.26252 20.5172 7.25783 20.5031L6.94377 18.2625H6.93908C6.55471 18.075 6.17971 17.8594 5.82814 17.6109L3.72346 18.4594C3.71877 18.4594 3.71408 18.4641 3.70939 18.4641C3.13752 18.6797 2.49533 18.4594 2.18127 17.9297C2.18127 17.925 2.17658 17.925 2.17658 17.9203L0.170331 14.4516C-0.139044 13.9219 -0.0171693 13.2469 0.456268 12.8531C0.460956 12.8484 0.465643 12.8438 0.470331 12.8391L2.26096 11.4328L2.25627 11.4281C2.23752 11.1937 2.22814 10.9828 2.22814 10.7766C2.22814 10.5656 2.23752 10.3547 2.25627 10.1297L0.475018 8.73281C0.465643 8.72813 0.460956 8.72344 0.456268 8.71406C-0.00779423 8.32031 -0.124982 7.65 0.179706 7.125L2.18596 3.65625C2.18596 3.65156 2.19064 3.65156 2.19064 3.64688C2.50471 3.12188 3.14689 2.89688 3.71877 3.1125C3.72346 3.1125 3.72814 3.11719 3.73283 3.11719L5.83752 3.96562C6.19377 3.72187 6.56408 3.50625 6.94846 3.31875L7.26252 1.07344C7.26252 1.06406 7.26721 1.05469 7.26721 1.05C7.36564 0.454688 7.88127 0.0140625 8.48596 0C8.49064 0 8.49533 0 8.50002 0H12.5078C12.5125 0 12.5172 0 12.5219 0C13.1219 0.009375 13.6235 0.426562 13.7453 1.0125C13.75 1.02656 13.75 1.04531 13.7547 1.05937L14.0688 3.3H14.0735C14.4578 3.4875 14.8328 3.70313 15.1844 3.95156L17.2891 3.10312C17.2938 3.10312 17.2985 3.09844 17.3031 3.09844C17.875 2.87812 18.5172 3.10313 18.8313 3.63281C18.8313 3.6375 18.836 3.6375 18.836 3.64219L20.8422 7.11094C21.1516 7.64062 21.0297 8.31563 20.5563 8.70938C20.5516 8.71406 20.5469 8.71875 20.5422 8.72344L18.7516 10.1297C18.7516 10.1344 18.7516 10.1391 18.7516 10.1391C18.7703 10.3781 18.7797 10.5891 18.7797 10.7812V10.7859C18.7797 10.9969 18.7703 11.2125 18.7516 11.4234L20.5422 12.825C20.5469 12.8297 20.5516 12.8344 20.5563 12.8391C21.0297 13.2328 21.1516 13.9031 20.8422 14.4375L18.836 17.9062C18.836 17.9109 18.8313 17.9109 18.8313 17.9156C18.5172 18.4406 17.875 18.6656 17.3031 18.45C17.2985 18.45 17.2938 18.4453 17.2891 18.4453L15.1844 17.5969C14.8281 17.8406 14.4578 18.0563 14.0735 18.2438L13.7594 20.4891C13.7594 20.4984 13.7547 20.5078 13.7547 20.5125C13.6516 21.1078 13.136 21.5484 12.5313 21.5625C12.5219 21.5625 12.5172 21.5625 12.5125 21.5625ZM8.71096 20.0625H12.3016L12.5875 18.0328C12.6578 17.5406 12.9672 17.1141 13.4172 16.8937C13.736 16.7391 14.0406 16.5609 14.3313 16.3641C14.7438 16.0781 15.2735 16.0172 15.7469 16.2047L17.65 16.9688L19.4406 13.8703L17.4906 12.3469C17.2797 12.1828 17.1719 11.9156 17.2094 11.6531C17.2516 11.3672 17.2703 11.0719 17.275 10.7812C17.275 10.6266 17.2656 10.4578 17.2516 10.2609C17.2047 9.75469 17.4203 9.2625 17.8188 8.94844L19.436 7.67813L17.6453 4.57969L15.7422 5.34375C15.2735 5.53125 14.7438 5.475 14.3266 5.18438C14.0406 4.98281 13.736 4.80469 13.4219 4.65469C12.9719 4.43906 12.6578 4.0125 12.5828 3.51562L12.3016 1.5H8.71096L8.42502 3.52969C8.35471 4.02188 8.04533 4.44844 7.59533 4.66875C7.27658 4.82344 6.97189 5.00156 6.68127 5.19844C6.26877 5.48437 5.73908 5.54531 5.26564 5.35781L3.37189 4.59375L1.58127 7.69219L3.18908 8.95781C3.58752 9.27188 3.79846 9.75937 3.75627 10.2656C3.73752 10.4484 3.73283 10.6172 3.73283 10.7812C3.73283 10.9406 3.74221 11.1094 3.75627 11.3016C3.80314 11.8078 3.59221 12.3 3.19377 12.6141L1.57658 13.8844L3.36721 16.9828L5.26564 16.2188C5.73439 16.0312 6.26408 16.0875 6.68127 16.3781C6.96721 16.5797 7.27189 16.7578 7.58596 16.9078C8.03596 17.1234 8.35002 17.55 8.42502 18.0469L8.71096 20.0625ZM10.511 14.5312C10.3891 14.5312 10.2625 14.5266 10.1406 14.5125C9.14221 14.4141 8.24689 13.9313 7.60939 13.1578C6.97189 12.3844 6.67658 11.4094 6.77502 10.4109C6.97658 8.35313 8.81877 6.84375 10.8766 7.04531C12.6485 7.22344 14.0594 8.63906 14.2375 10.4062C14.261 10.65 14.261 10.8984 14.2375 11.1469C14.0453 13.0828 12.4141 14.5312 10.511 14.5312ZM10.5016 8.53125C9.98127 8.53125 9.48439 8.70937 9.07658 9.04219C8.61252 9.42188 8.32189 9.96094 8.26564 10.5609C8.20471 11.1609 8.38283 11.7422 8.76721 12.2109C9.14689 12.675 9.68596 12.9656 10.286 13.0219C11.5188 13.1437 12.625 12.2391 12.7469 11.0016C12.761 10.8563 12.761 10.7063 12.7469 10.5609C12.6391 9.49687 11.7906 8.64844 10.7266 8.54062C10.6516 8.53594 10.5766 8.53125 10.5016 8.53125Z" fill="#8726EE"/>
</svg>
