<svg width="24" height="24" viewBox="0 0 24 24" fill="none" xmlns="http://www.w3.org/2000/svg">
<path d="M10.8462 5.09619C10.8462 6.06269 10.0627 6.84619 9.09619 6.84619C8.12969 6.84619 7.34619 6.06269 7.34619 5.09619C7.34619 4.12969 8.12969 3.34619 9.09619 3.34619C10.0627 3.34619 10.8462 4.12969 10.8462 5.09619ZM10.8462 12.0962C10.8462 13.0627 10.0627 13.8462 9.09619 13.8462C8.12969 13.8462 7.34619 13.0627 7.34619 12.0962C7.34619 11.1297 8.12969 10.3462 9.09619 10.3462C10.0627 10.3462 10.8462 11.1297 10.8462 12.0962ZM10.8462 19.0962C10.8462 20.0627 10.0627 20.8462 9.09619 20.8462C8.12969 20.8462 7.34619 20.0627 7.34619 19.0962C7.34619 18.1297 8.12969 17.3462 9.09619 17.3462C10.0627 17.3462 10.8462 18.1297 10.8462 19.0962ZM9.34619 5.09619C9.34619 4.95812 9.23426 4.84619 9.09619 4.84619C8.95812 4.84619 8.84619 4.95812 8.84619 5.09619C8.84619 5.23426 8.95812 5.34619 9.09619 5.34619C9.23426 5.34619 9.34619 5.23426 9.34619 5.09619ZM9.34619 12.0962C9.34619 11.9581 9.23426 11.8462 9.09619 11.8462C8.95812 11.8462 8.84619 11.9581 8.84619 12.0962C8.84619 12.2343 8.95812 12.3462 9.09619 12.3462C9.23426 12.3462 9.34619 12.2343 9.34619 12.0962ZM9.34619 19.0962C9.34619 18.9581 9.23426 18.8462 9.09619 18.8462C8.95812 18.8462 8.84619 18.9581 8.84619 19.0962C8.84619 19.2343 8.95812 19.3462 9.09619 19.3462C9.23426 19.3462 9.34619 19.2343 9.34619 19.0962ZM16.6538 5.09619C16.6538 6.06255 15.8701 6.84596 14.9038 6.84619C13.9373 6.84619 13.1538 6.06269 13.1538 5.09619C13.1538 4.12969 13.9373 3.34619 14.9038 3.34619C15.8701 3.34642 16.6538 4.12984 16.6538 5.09619ZM16.6538 12.0962C16.6538 13.0625 15.8701 13.846 14.9038 13.8462C13.9373 13.8462 13.1538 13.0627 13.1538 12.0962C13.1538 11.1297 13.9373 10.3462 14.9038 10.3462C15.8701 10.3464 16.6538 11.1298 16.6538 12.0962ZM16.6538 19.0962C16.6538 20.0625 15.8701 20.846 14.9038 20.8462C13.9373 20.8462 13.1538 20.0627 13.1538 19.0962C13.1538 18.1297 13.9373 17.3462 14.9038 17.3462C15.8701 17.3464 16.6538 18.1298 16.6538 19.0962ZM15.1538 5.09619C15.1538 4.95826 15.0417 4.84642 14.9038 4.84619C14.7657 4.84619 14.6538 4.95812 14.6538 5.09619C14.6538 5.23426 14.7657 5.34619 14.9038 5.34619C15.0417 5.34596 15.1538 5.23412 15.1538 5.09619ZM15.1538 12.0962C15.1538 11.9583 15.0417 11.8464 14.9038 11.8462C14.7657 11.8462 14.6538 11.9581 14.6538 12.0962C14.6538 12.2343 14.7657 12.3462 14.9038 12.3462C15.0417 12.346 15.1538 12.2341 15.1538 12.0962ZM15.1538 19.0962C15.1538 18.9583 15.0417 18.8464 14.9038 18.8462C14.7657 18.8462 14.6538 18.9581 14.6538 19.0962C14.6538 19.2343 14.7657 19.3462 14.9038 19.3462C15.0417 19.346 15.1538 19.2341 15.1538 19.0962Z" fill="#21272A"/>
</svg>
