<svg width="24" height="24" viewBox="0 0 24 24" fill="none" xmlns="http://www.w3.org/2000/svg">
<path d="M12 22.4953C11.4797 22.4953 10.9594 22.3594 10.4906 22.0922L3.36563 17.9437C2.67656 17.5453 2.25 16.8 2.25 16.0031V7.99688C2.25 7.2 2.68125 6.45469 3.36563 6.05625L10.4906 1.90781C11.4187 1.36406 12.5766 1.36406 13.5047 1.90781L20.6297 6.05625C21.3188 6.45937 21.7453 7.2 21.7453 7.99688V16.0031C21.7453 16.8 21.3188 17.5453 20.6297 17.9437L13.5047 22.0922C13.0453 22.3641 12.5203 22.4953 12 22.4953ZM12 3C11.7375 3 11.4797 3.06563 11.2453 3.20156L4.12031 7.35C3.89063 7.48125 3.75 7.72969 3.75 7.99688V15.9984C3.75 16.2656 3.89063 16.5141 4.12031 16.6453L11.2453 20.7938C11.7094 21.0656 12.2859 21.0656 12.7547 20.7938L19.8797 16.6453C20.1094 16.5141 20.25 16.2656 20.25 15.9984V7.99688C20.25 7.73438 20.1047 7.48594 19.8797 7.35L12.7547 3.20156C12.5203 3.07031 12.2578 3 12 3Z" fill="#21272A"/>
<path d="M12 13.125C11.8688 13.125 11.7375 13.0922 11.6203 13.0219L2.85469 7.86563C2.49844 7.65469 2.37656 7.19531 2.5875 6.83906C2.79844 6.48281 3.25781 6.36094 3.61406 6.57188L12 11.5031L20.3859 6.57188C20.7422 6.36094 21.2016 6.48281 21.4125 6.83906C21.6234 7.19531 21.5016 7.65469 21.1453 7.86563L12.3797 13.0219C12.2625 13.0922 12.1313 13.125 12 13.125Z" fill="#21272A"/>
<path d="M12 22.5C11.5875 22.5 11.25 22.1625 11.25 21.75V12.375C11.25 11.9625 11.5875 11.625 12 11.625C12.4125 11.625 12.75 11.9625 12.75 12.375V21.75C12.75 22.1625 12.4125 22.5 12 22.5Z" fill="#21272A"/>
</svg>
