<svg width="52" height="52" viewBox="0 0 52 52" fill="none" xmlns="http://www.w3.org/2000/svg">
<path d="M26 48.7398C24.8727 48.7398 23.7453 48.4453 22.7297 47.8664L7.29219 38.8781C5.79922 38.0148 4.875 36.4 4.875 34.6734V17.3266C4.875 15.6 5.80938 13.9852 7.29219 13.1219L22.7297 4.13359C24.7406 2.95547 27.2492 2.95547 29.2602 4.13359L44.6977 13.1219C46.1906 13.9953 47.1148 15.6 47.1148 17.3266V34.6734C47.1148 36.4 46.1906 38.0148 44.6977 38.8781L29.2602 47.8664C28.2648 48.4555 27.1273 48.7398 26 48.7398ZM26 6.5C25.4312 6.5 24.8727 6.64219 24.3648 6.93672L8.92734 15.925C8.42969 16.2094 8.125 16.7477 8.125 17.3266V34.6633C8.125 35.2422 8.42969 35.7805 8.92734 36.0648L24.3648 45.0531C25.3703 45.6422 26.6195 45.6422 27.6352 45.0531L43.0727 36.0648C43.5703 35.7805 43.875 35.2422 43.875 34.6633V17.3266C43.875 16.7578 43.5602 16.2195 43.0727 15.925L27.6352 6.93672C27.1273 6.65234 26.5586 6.5 26 6.5Z" fill="#21272A"/>
<path d="M26 28.4374C25.7157 28.4374 25.4313 28.3663 25.1774 28.214L6.18519 17.0421C5.41331 16.5851 5.14925 15.5898 5.60628 14.8179C6.06331 14.046 7.05862 13.7819 7.8305 14.239L26 24.9233L44.1696 14.239C44.9414 13.7819 45.9368 14.046 46.3938 14.8179C46.8508 15.5898 46.5868 16.5851 45.8149 17.0421L26.8227 28.214C26.5688 28.3663 26.2844 28.4374 26 28.4374Z" fill="#21272A"/>
<path d="M26 48.75C25.1062 48.75 24.375 48.0188 24.375 47.125V26.8125C24.375 25.9187 25.1062 25.1875 26 25.1875C26.8938 25.1875 27.625 25.9187 27.625 26.8125V47.125C27.625 48.0188 26.8938 48.75 26 48.75Z" fill="#21272A"/>
</svg>

