<svg width="59" height="64" viewBox="0 0 59 64" fill="none" xmlns="http://www.w3.org/2000/svg">
<path d="M54.7506 17.6514L29.2506 31.818M29.2506 31.818L3.75057 17.6514M29.2506 31.818L29.2507 60.3181M56.2507 43.9938V19.6425C56.2507 18.6145 56.2507 18.1006 56.0992 17.6422C55.9652 17.2366 55.7462 16.8644 55.4568 16.5503C55.1296 16.1953 54.6803 15.9457 53.7818 15.4465L31.5818 3.11317C30.731 2.6405 30.3055 2.40416 29.855 2.3115C29.4563 2.2295 29.0451 2.2295 28.6463 2.3115C28.1958 2.40416 27.7704 2.6405 26.9196 3.11317L4.71958 15.4465C3.82101 15.9457 3.37173 16.1953 3.04457 16.5503C2.75514 16.8644 2.53611 17.2366 2.40213 17.6422C2.25067 18.1006 2.25067 18.6145 2.25067 19.6425V43.9938C2.25067 45.0217 2.25067 45.5357 2.40213 45.9941C2.53611 46.3996 2.75514 46.7719 3.04457 47.0859C3.37173 47.4409 3.82101 47.6905 4.71959 48.1897L26.9196 60.5231C27.7704 60.9957 28.1958 61.2321 28.6463 61.3247C29.0451 61.4067 29.4563 61.4067 29.855 61.3247C30.3055 61.2321 30.7309 60.9957 31.5818 60.5231L53.7818 48.1897C54.6803 47.6905 55.1296 47.4409 55.4568 47.0859C55.7462 46.7719 55.9652 46.3996 56.0992 45.9941C56.2507 45.5357 56.2507 45.0217 56.2507 43.9938Z" stroke="#8726EE" stroke-width="4.5" stroke-linecap="round" stroke-linejoin="round"/>
</svg>

