<svg width="18" height="18" viewBox="0 0 18 18" fill="none" xmlns="http://www.w3.org/2000/svg">
<path d="M10.4271 17.9688H7.08726C7.08335 17.9688 7.07944 17.9688 7.07554 17.9688C6.57554 17.9609 6.15757 17.6133 6.05601 17.125C6.0521 17.1133 6.0521 17.0977 6.04819 17.0859L5.78647 15.2188H5.78257C5.46226 15.0625 5.14976 14.8828 4.85679 14.6758L3.10288 15.3828C3.09897 15.3828 3.09507 15.3867 3.09116 15.3867C2.6146 15.5664 2.07944 15.3828 1.81772 14.9414C1.81772 14.9375 1.81382 14.9375 1.81382 14.9336L0.141942 12.043C-0.11587 11.6016 -0.0143077 11.0391 0.380224 10.7109C0.38413 10.707 0.388036 10.7031 0.391942 10.6992L1.88413 9.52734L1.88022 9.52344C1.8646 9.32812 1.85679 9.15234 1.85679 8.98047C1.85679 8.80469 1.8646 8.62891 1.88022 8.44141L0.395849 7.27734C0.388036 7.27344 0.38413 7.26953 0.380224 7.26172C-0.00649519 6.93359 -0.104151 6.375 0.149755 5.9375L1.82163 3.04688C1.82163 3.04297 1.82554 3.04297 1.82554 3.03906C2.08726 2.60156 2.62241 2.41406 3.09897 2.59375C3.10288 2.59375 3.10679 2.59766 3.11069 2.59766L4.8646 3.30469C5.16147 3.10156 5.47007 2.92188 5.79038 2.76562L6.0521 0.894531C6.0521 0.886719 6.05601 0.878906 6.05601 0.875C6.13804 0.378906 6.56772 0.0117188 7.07163 0C7.07554 0 7.07944 0 7.08335 0H10.4232C10.4271 0 10.431 0 10.4349 0C10.9349 0.0078125 11.3529 0.355469 11.4544 0.84375C11.4584 0.855469 11.4583 0.871094 11.4623 0.882812L11.724 2.75H11.7279C12.0482 2.90625 12.3607 3.08594 12.6537 3.29297L14.4076 2.58594C14.4115 2.58594 14.4154 2.58203 14.4193 2.58203C14.8959 2.39844 15.431 2.58594 15.6927 3.02734C15.6927 3.03125 15.6966 3.03125 15.6966 3.03516L17.3685 5.92578C17.6263 6.36719 17.5248 6.92969 17.1302 7.25781C17.1263 7.26172 17.1224 7.26562 17.1185 7.26953L15.6263 8.44141C15.6263 8.44531 15.6263 8.44922 15.6263 8.44922C15.6419 8.64844 15.6498 8.82422 15.6498 8.98438V8.98828C15.6498 9.16406 15.6419 9.34375 15.6263 9.51953L17.1185 10.6875C17.1224 10.6914 17.1263 10.6953 17.1302 10.6992C17.5248 11.0273 17.6263 11.5859 17.3685 12.0312L15.6966 14.9219C15.6966 14.9258 15.6927 14.9258 15.6927 14.9297C15.431 15.3672 14.8959 15.5547 14.4193 15.375C14.4154 15.375 14.4115 15.3711 14.4076 15.3711L12.6537 14.6641C12.3568 14.8672 12.0482 15.0469 11.7279 15.2031L11.4662 17.0742C11.4662 17.082 11.4623 17.0898 11.4623 17.0938C11.3763 17.5898 10.9466 17.957 10.4427 17.9688C10.4349 17.9688 10.431 17.9688 10.4271 17.9688ZM7.25913 16.7188H10.2513L10.4896 15.0273C10.5482 14.6172 10.806 14.2617 11.181 14.0781C11.4466 13.9492 11.7005 13.8008 11.9427 13.6367C12.2865 13.3984 12.7279 13.3477 13.1224 13.5039L14.7084 14.1406L16.2005 11.5586L14.5755 10.2891C14.3998 10.1523 14.3099 9.92969 14.3412 9.71094C14.3763 9.47266 14.3919 9.22656 14.3959 8.98438C14.3959 8.85547 14.388 8.71484 14.3763 8.55078C14.3373 8.12891 14.5169 7.71875 14.849 7.45703L16.1966 6.39844L14.7044 3.81641L13.1185 4.45312C12.7279 4.60938 12.2865 4.5625 11.9388 4.32031C11.7005 4.15234 11.4466 4.00391 11.1849 3.87891C10.8099 3.69922 10.5482 3.34375 10.4857 2.92969L10.2513 1.25H7.25913L7.02085 2.94141C6.96226 3.35156 6.70444 3.70703 6.32944 3.89062C6.06382 4.01953 5.80991 4.16797 5.56772 4.33203C5.22397 4.57031 4.78257 4.62109 4.38804 4.46484L2.80991 3.82812L1.31772 6.41016L2.65757 7.46484C2.9896 7.72656 3.16538 8.13281 3.13022 8.55469C3.1146 8.70703 3.11069 8.84766 3.11069 8.98438C3.11069 9.11719 3.11851 9.25781 3.13022 9.41797C3.16929 9.83984 2.99351 10.25 2.66147 10.5117L1.31382 11.5703L2.806 14.1523L4.38804 13.5156C4.77866 13.3594 5.22007 13.4062 5.56772 13.6484C5.80601 13.8164 6.05991 13.9648 6.32163 14.0898C6.69663 14.2695 6.95835 14.625 7.02085 15.0391L7.25913 16.7188ZM8.75913 12.1094C8.65757 12.1094 8.5521 12.1055 8.45054 12.0938C7.61851 12.0117 6.87241 11.6094 6.34116 10.9648C5.80991 10.3203 5.56382 9.50781 5.64585 8.67578C5.81382 6.96094 7.34897 5.70312 9.06382 5.87109C10.5404 6.01953 11.7162 7.19922 11.8646 8.67188C11.8841 8.875 11.8841 9.08203 11.8646 9.28906C11.7044 10.9023 10.3451 12.1094 8.75913 12.1094ZM8.75132 7.10938C8.31772 7.10938 7.90366 7.25781 7.56382 7.53516C7.1771 7.85156 6.93491 8.30078 6.88804 8.80078C6.83726 9.30078 6.98569 9.78516 7.30601 10.1758C7.62241 10.5625 8.07163 10.8047 8.57163 10.8516C9.59898 10.9531 10.5208 10.1992 10.6224 9.16797C10.6341 9.04688 10.6341 8.92188 10.6224 8.80078C10.5326 7.91406 9.82554 7.20703 8.93882 7.11719C8.87632 7.11328 8.81382 7.10938 8.75132 7.10938Z" fill="#21272A"/>
</svg>

