<svg width="24" height="24" viewBox="0 0 24 24" fill="none" xmlns="http://www.w3.org/2000/svg">
<path d="M4 0.5H20C21.933 0.5 23.5 2.067 23.5 4V20C23.5 21.933 21.933 23.5 20 23.5H4C2.067 23.5 0.5 21.933 0.5 20V4C0.5 2.067 2.067 0.5 4 0.5Z" fill="white"/>
<path d="M4 0.5H20C21.933 0.5 23.5 2.067 23.5 4V20C23.5 21.933 21.933 23.5 20 23.5H4C2.067 23.5 0.5 21.933 0.5 20V4C0.5 2.067 2.067 0.5 4 0.5Z" stroke="#BCBCBC"/>
<g clip-path="url(#clip0_2056_2759)">
<path d="M14 8L10 12L14 16" stroke="#21272A" stroke-width="1.5" stroke-linecap="round" stroke-linejoin="round"/>
</g>
<defs>
<clipPath id="clip0_2056_2759">
<rect width="16" height="16" fill="white" transform="translate(4 4)"/>
</clipPath>
</defs>
</svg>
