<svg width="24" height="24" viewBox="0 0 24 24" fill="none" xmlns="http://www.w3.org/2000/svg">
<path d="M4 0.5H20C21.933 0.5 23.5 2.067 23.5 4V20C23.5 21.933 21.933 23.5 20 23.5H4C2.067 23.5 0.5 21.933 0.5 20V4C0.5 2.067 2.067 0.5 4 0.5Z" fill="white"/>
<path d="M4 0.5H20C21.933 0.5 23.5 2.067 23.5 4V20C23.5 21.933 21.933 23.5 20 23.5H4C2.067 23.5 0.5 21.933 0.5 20V4C0.5 2.067 2.067 0.5 4 0.5Z" stroke="#BCBCBC"/>
<path d="M15.8127 7.47949C16.0079 7.28432 16.3245 7.28451 16.5198 7.47949C16.715 7.67475 16.715 7.99126 16.5198 8.18652L12.7063 11.999L16.5198 15.8125C16.715 16.0078 16.715 16.3243 16.5198 16.5195C16.3245 16.7148 16.008 16.7148 15.8127 16.5195L11.9993 12.7061L8.18677 16.5195C7.99151 16.7148 7.675 16.7148 7.47974 16.5195C7.28475 16.3242 7.28457 16.0077 7.47974 15.8125L11.2922 11.999L7.47974 8.18652C7.28459 7.99125 7.28451 7.67472 7.47974 7.47949C7.67496 7.28427 7.9915 7.28435 8.18677 7.47949L11.9993 11.292L15.8127 7.47949Z" fill="#21272A"/>
</svg>
