<svg width="24" height="24" viewBox="0 0 24 24" fill="none" xmlns="http://www.w3.org/2000/svg">
<path d="M14.0125 22.7812H10.0047C10 22.7812 9.99533 22.7812 9.99064 22.7812C9.39064 22.7719 8.88908 22.3547 8.76721 21.7687C8.76252 21.7547 8.76252 21.7359 8.75783 21.7219L8.44377 19.4813H8.43908C8.05471 19.2938 7.67971 19.0781 7.32814 18.8297L5.22346 19.6781C5.21877 19.6781 5.21408 19.6828 5.20939 19.6828C4.63752 19.8984 3.99533 19.6781 3.68127 19.1484C3.68127 19.1437 3.67658 19.1437 3.67658 19.1391L1.67033 15.6703C1.36096 15.1406 1.48283 14.4656 1.95627 14.0719C1.96096 14.0672 1.96564 14.0625 1.97033 14.0578L3.76096 12.6516L3.75627 12.6469C3.73752 12.4125 3.72814 12.2016 3.72814 11.9953C3.72814 11.7844 3.73752 11.5734 3.75627 11.3484L1.97502 9.95156C1.96564 9.94688 1.96096 9.94219 1.95627 9.93281C1.49221 9.53906 1.37502 8.86875 1.67971 8.34375L3.68596 4.875C3.68596 4.87031 3.69064 4.87031 3.69064 4.86563C4.00471 4.34063 4.64689 4.11563 5.21877 4.33125C5.22346 4.33125 5.22814 4.33594 5.23283 4.33594L7.33752 5.18437C7.69377 4.94062 8.06408 4.725 8.44846 4.5375L8.76252 2.29219C8.76252 2.28281 8.76721 2.27344 8.76721 2.26875C8.86564 1.67344 9.38127 1.23281 9.98596 1.21875C9.99064 1.21875 9.99533 1.21875 10 1.21875H14.0078C14.0125 1.21875 14.0172 1.21875 14.0219 1.21875C14.6219 1.22813 15.1235 1.64531 15.2453 2.23125C15.25 2.24531 15.25 2.26406 15.2547 2.27812L15.5688 4.51875H15.5735C15.9578 4.70625 16.3328 4.92188 16.6844 5.17031L18.7891 4.32187C18.7938 4.32187 18.7985 4.31719 18.8031 4.31719C19.375 4.09687 20.0172 4.32188 20.3313 4.85156C20.3313 4.85625 20.336 4.85625 20.336 4.86094L22.3422 8.32969C22.6516 8.85938 22.5297 9.53438 22.0563 9.92813C22.0516 9.93281 22.0469 9.9375 22.0422 9.94219L20.2516 11.3484C20.2516 11.3531 20.2516 11.3578 20.2516 11.3578C20.2703 11.5969 20.2797 11.8078 20.2797 12V12.0047C20.2797 12.2156 20.2703 12.4313 20.2516 12.6422L22.0422 14.0438C22.0469 14.0484 22.0516 14.0531 22.0563 14.0578C22.5297 14.4516 22.6516 15.1219 22.3422 15.6562L20.336 19.125C20.336 19.1297 20.3313 19.1297 20.3313 19.1344C20.0172 19.6594 19.375 19.8844 18.8031 19.6688C18.7985 19.6688 18.7938 19.6641 18.7891 19.6641L16.6844 18.8156C16.3281 19.0594 15.9578 19.275 15.5735 19.4625L15.2594 21.7078C15.2594 21.7172 15.2547 21.7266 15.2547 21.7313C15.1516 22.3266 14.636 22.7672 14.0313 22.7812C14.0219 22.7812 14.0172 22.7812 14.0125 22.7812ZM10.211 21.2812H13.8016L14.0875 19.2516C14.1578 18.7594 14.4672 18.3328 14.9172 18.1125C15.236 17.9578 15.5406 17.7797 15.8313 17.5828C16.2438 17.2969 16.7735 17.2359 17.2469 17.4234L19.15 18.1875L20.9406 15.0891L18.9906 13.5656C18.7797 13.4016 18.6719 13.1344 18.7094 12.8719C18.7516 12.5859 18.7703 12.2906 18.775 12C18.775 11.8453 18.7656 11.6766 18.7516 11.4797C18.7047 10.9734 18.9203 10.4812 19.3188 10.1672L20.936 8.89688L19.1453 5.79844L17.2422 6.5625C16.7735 6.75 16.2438 6.69375 15.8266 6.40313C15.5406 6.20156 15.236 6.02344 14.9219 5.87344C14.4719 5.65781 14.1578 5.23125 14.0828 4.73438L13.8016 2.71875H10.211L9.92502 4.74844C9.85471 5.24063 9.54533 5.66719 9.09533 5.8875C8.77658 6.04219 8.47189 6.22031 8.18127 6.41719C7.76877 6.70312 7.23908 6.76406 6.76564 6.57656L4.87189 5.8125L3.08127 8.91094L4.68908 10.1766C5.08752 10.4906 5.29846 10.9781 5.25627 11.4844C5.23752 11.6672 5.23283 11.8359 5.23283 12C5.23283 12.1594 5.24221 12.3281 5.25627 12.5203C5.30314 13.0266 5.09221 13.5188 4.69377 13.8328L3.07658 15.1031L4.86721 18.2016L6.76564 17.4375C7.23439 17.25 7.76408 17.3062 8.18127 17.5969C8.46721 17.7984 8.77189 17.9766 9.08596 18.1266C9.53596 18.3422 9.85002 18.7687 9.92502 19.2656L10.211 21.2812ZM12.011 15.75C11.8891 15.75 11.7625 15.7453 11.6406 15.7313C10.6422 15.6328 9.74689 15.15 9.10939 14.3766C8.47189 13.6031 8.17658 12.6281 8.27502 11.6297C8.47658 9.57188 10.3188 8.0625 12.3766 8.26406C14.1485 8.44219 15.5594 9.85781 15.7375 11.625C15.761 11.8687 15.761 12.1172 15.7375 12.3656C15.5453 14.3016 13.9141 15.75 12.011 15.75ZM12.0016 9.75C11.4813 9.75 10.9844 9.92812 10.5766 10.2609C10.1125 10.6406 9.82189 11.1797 9.76564 11.7797C9.70471 12.3797 9.88283 12.9609 10.2672 13.4297C10.6469 13.8938 11.186 14.1844 11.786 14.2406C13.0188 14.3625 14.125 13.4578 14.2469 12.2203C14.261 12.075 14.261 11.925 14.2469 11.7797C14.1391 10.7156 13.2906 9.86719 12.2266 9.75937C12.1516 9.75469 12.0766 9.75 12.0016 9.75Z" fill="#21272A"/>
</svg>
