<svg width="574" height="105" viewBox="0 0 574 105" fill="none" xmlns="http://www.w3.org/2000/svg">
<rect x="0.5" y="0.5" width="12" height="13" fill="#FFE4E4" stroke="#E1C8C8"/>
<rect x="0.5" y="13.5" width="12" height="13" fill="#F6F6F6" stroke="#E5E5E5"/>
<rect x="0.5" y="26.5" width="12" height="13" fill="#F6F6F6" stroke="#E5E5E5"/>
<rect x="0.5" y="39.5" width="12" height="13" fill="#F6F6F6" stroke="#E5E5E5"/>
<rect x="0.5" y="52.5" width="12" height="13" fill="#F6F6F6" stroke="#E5E5E5"/>
<rect x="0.5" y="65.5" width="12" height="13" fill="#F6F6F6" stroke="#E5E5E5"/>
<rect x="0.5" y="78.5" width="12" height="13" fill="#F6F6F6" stroke="#E5E5E5"/>
<rect x="0.5" y="91.5" width="12" height="13" fill="#F6F6F6" stroke="#E5E5E5"/>
<rect x="12.5" y="0.5" width="93.5" height="13" fill="#FFE4E4" stroke="#E1C8C8"/>
<rect x="12.5" y="13.5" width="93.5" height="13" fill="white" stroke="#E5E5E5"/>
<rect x="12.5" y="26.5" width="93.5" height="13" fill="white" stroke="#E5E5E5"/>
<rect x="12.5" y="39.5" width="93.5" height="13" fill="white" stroke="#E5E5E5"/>
<rect x="12.5" y="52.5" width="93.5" height="13" fill="white" stroke="#E5E5E5"/>
<rect x="12.5" y="65.5" width="93.5" height="13" fill="white" stroke="#E5E5E5"/>
<rect x="12.5" y="78.5" width="93.5" height="13" fill="white" stroke="#E5E5E5"/>
<rect x="12.5" y="91.5" width="93.5" height="13" fill="white" stroke="#E5E5E5"/>
<rect x="106" y="0.5" width="93.5" height="13" fill="#FFE4E4" stroke="#E1C8C8"/>
<rect x="106" y="13.5" width="93.5" height="13" fill="white" stroke="#E5E5E5"/>
<rect x="106" y="26.5" width="93.5" height="13" fill="white" stroke="#E5E5E5"/>
<rect x="106" y="39.5" width="93.5" height="13" fill="white" stroke="#E5E5E5"/>
<rect x="106" y="52.5" width="93.5" height="13" fill="white" stroke="#E5E5E5"/>
<rect opacity="0.07" x="106" y="65.5" width="93.5" height="13" fill="#AE0000" stroke="#AB2525"/>
<rect x="106" y="78.5" width="93.5" height="13" fill="white" stroke="#E5E5E5"/>
<rect x="106" y="91.5" width="93.5" height="13" fill="white" stroke="#E5E5E5"/>
<rect x="199.5" y="0.5" width="93.5" height="13" fill="#FFE4E4" stroke="#E1C8C8"/>
<rect x="199.5" y="13.5" width="93.5" height="13" fill="white" stroke="#E5E5E5"/>
<rect x="199.5" y="26.5" width="93.5" height="13" fill="white" stroke="#E5E5E5"/>
<rect x="199.5" y="39.5" width="93.5" height="13" fill="white" stroke="#E5E5E5"/>
<rect x="199.5" y="52.5" width="93.5" height="13" fill="white" stroke="#E5E5E5"/>
<rect x="199.5" y="65.5" width="93.5" height="13" fill="white" stroke="#E5E5E5"/>
<rect x="199.5" y="78.5" width="93.5" height="13" fill="white" stroke="#E5E5E5"/>
<rect x="199.5" y="91.5" width="93.5" height="13" fill="white" stroke="#E5E5E5"/>
<rect x="293" y="0.5" width="93.5" height="13" fill="#FFE4E4" stroke="#E1C8C8"/>
<rect x="293" y="13.5" width="93.5" height="13" fill="white" stroke="#E5E5E5"/>
<rect x="293" y="26.5" width="93.5" height="13" fill="white" stroke="#E5E5E5"/>
<rect x="293" y="39.5" width="93.5" height="13" fill="white" stroke="#E5E5E5"/>
<rect opacity="0.07" x="293" y="52.5" width="93.5" height="13" fill="#8726EE" stroke="#8726EE"/>
<rect x="293" y="65.5" width="93.5" height="13" fill="white" stroke="#E5E5E5"/>
<rect x="293" y="78.5" width="93.5" height="13" fill="white" stroke="#E5E5E5"/>
<rect x="293" y="91.5" width="93.5" height="13" fill="white" stroke="#E5E5E5"/>
<rect x="386.5" y="0.5" width="93.5" height="13" fill="#FFE4E4" stroke="#E1C8C8"/>
<rect x="386.5" y="13.5" width="93.5" height="13" fill="white" stroke="#E5E5E5"/>
<rect x="386.5" y="26.5" width="93.5" height="13" fill="white" stroke="#E5E5E5"/>
<rect opacity="0.07" x="386.5" y="39.5" width="93.5" height="13" fill="#AE0000" stroke="#AB2525"/>
<rect x="386.5" y="52.5" width="93.5" height="13" fill="white" stroke="#E5E5E5"/>
<rect x="386.5" y="65.5" width="93.5" height="13" fill="white" stroke="#E5E5E5"/>
<rect x="386.5" y="78.5" width="93.5" height="13" fill="white" stroke="#E5E5E5"/>
<rect x="386.5" y="91.5" width="93.5" height="13" fill="white" stroke="#E5E5E5"/>
<rect x="480" y="0.5" width="93.5" height="13" fill="#FFE4E4" stroke="#E1C8C8"/>
<rect x="480" y="13.5" width="93.5" height="13" fill="white" stroke="#E5E5E5"/>
<rect x="480" y="26.5" width="93.5" height="13" fill="white" stroke="#E5E5E5"/>
<rect x="480" y="39.5" width="93.5" height="13" fill="white" stroke="#E5E5E5"/>
<rect x="480" y="52.5" width="93.5" height="13" fill="white" stroke="#E5E5E5"/>
<rect x="480" y="65.5" width="93.5" height="13" fill="white" stroke="#E5E5E5"/>
<rect x="480" y="78.5" width="93.5" height="13" fill="white" stroke="#E5E5E5"/>
<rect x="480" y="91.5" width="93.5" height="13" fill="white" stroke="#E5E5E5"/>
</svg>

